#!OML:ASF X:\für Bonn\!DataBase\2005_08_12_Daniel\c3d\Daniel.ASF
:FULLY-SPECIFIED
:DEGREES
366
root 0.113993 17.2222 -11.9737 172.874 173.384 -179.9
lowerback 20.4363 -0.646992 4.1162
upperback 6.11527 -0.0740273 -1.28772
thorax -4.78584 -0.0210782 -3.71231
lowerneck -6.97274 0.545107 -2.20627
upperneck 7.62425 0.81906 1.64894
head 3.70516 0.412768 0.980642
rclavicle -2.90723e-015 9.83984e-015
rhumerus -35.1082 -39.2837 -71.0004
rradius 10.2548
rwrist 54.3954
rhand -12.4259 19.2247
rfingers 7.12502
rthumb 13.6465 -10.308
lclavicle -2.90723e-015 9.83984e-015
lhumerus -29.7019 30.8333 78.6777
lradius 23.8011
lwrist -27.1969
lhand -10.0888 -7.38252
lfingers 7.12502
lthumb 15.8981 21.9849
rfemur 29.3641 7.39178 28.7191
rtibia -9.22361e-014
rfoot -24.294 -11.1999
rtoes -8.29666
lfemur -28.0541 -16.5665 -16.6493
ltibia 30.6016
lfoot -17.7897 4.92782
ltoes -11.9308
367
root 0.116315 17.2005 -11.8632 172.876 173.353 -179.995
lowerback 20.3768 -0.619843 4.06874
upperback 6.08649 -0.0475021 -1.2436
thorax -4.78405 -0.00880479 -3.64352
lowerneck -7.34019 0.49361 -2.16758
upperneck 7.73899 0.737912 1.81212
head 3.82022 0.381899 1.02855
rclavicle 3.72721e-016 5.56597e-015
rhumerus -34.8094 -38.9342 -71.2211
rradius 10.2183
rwrist 54.4427
rhand -12.5127 19.2588
rfingers 7.12502
rthumb 13.5629 -10.2794
lclavicle 3.72721e-016 5.56597e-015
lhumerus -30.1675 31.5732 77.9574
lradius 23.3832
lwrist -28.0134
lhand -10.1619 -7.29859
lfingers 7.12502
lthumb 15.8278 22.0744
rfemur 29.7288 6.91903 28.6988
rtibia -9.54166e-015
rfoot -24.5127 -10.7596
rtoes -8.12389
lfemur -28.3573 -16.8105 -16.5455
ltibia 30.3087
lfoot -17.8955 5.1972
ltoes -12.1646
368
root 0.121054 17.1776 -11.7522 172.866 173.338 -180.068
lowerback 20.362 -0.601979 4.00074
upperback 6.04662 -0.0358708 -1.20867
thorax -4.81888 -0.00485067 -3.56981
lowerneck -7.52392 0.444336 -2.11705
upperneck 7.76297 0.656149 1.95926
head 3.86725 0.350364 1.06624
rclavicle -5.2181e-015 6.36111e-015
rhumerus -34.4148 -38.2402 -71.6777
rradius 10.2702
rwrist 54.1966
rhand -12.5637 19.1178
rfingers 7.12502
rthumb 13.5138 -10.4237
lclavicle -5.2181e-015 6.36111e-015
lhumerus -30.7371 32.3748 77.1659
lradius 23.0143
lwrist -28.8696
lhand -10.238 -7.18572
lfingers 7.12502
lthumb 15.7544 22.1931
rfemur 30.1221 6.46529 28.6557
rtibia -6.67916e-014
rfoot -24.7294 -10.3509
rtoes -8.21107
lfemur -28.631 -17.0404 -16.484
ltibia 30.0956
lfoot -17.9655 5.47269
ltoes -12.4967
369
root 0.127229 17.1548 -11.6384 172.88 173.349 -180.143
lowerback 20.3199 -0.565343 3.96813
upperback 6.00475 0.00452915 -1.19961
thorax -4.83883 0.0135751 -3.55092
lowerneck -7.50848 0.390573 -2.01536
upperneck 7.65058 0.559458 2.11357
head 3.82691 0.312905 1.09292
rclavicle -1.00386e-014 -2.98177e-016
rhumerus -33.9098 -37.2895 -72.3539
rradius 10.3801
rwrist 53.5024
rhand -12.4786 18.8117
rfingers 7.12502
rthumb 13.5958 -10.7243
lclavicle -1.00386e-014 -2.98177e-016
lhumerus -31.3279 33.1413 76.3225
lradius 22.6538
lwrist -29.8362
lhand -10.3305 -6.9801
lfingers 7.12502
lthumb 15.6653 22.4057
rfemur 30.4944 6.04467 28.6068
rtibia 6.36111e-015
rfoot -24.8743 -9.97053
rtoes -8.21436
lfemur -28.9063 -17.147 -16.4416
ltibia 29.9747
lfoot -17.9643 5.62711
ltoes -12.8435
370
root 0.134322 17.1321 -11.5226 172.88 173.406 -180.23
lowerback 20.2914 -0.5272 3.93817
upperback 5.96902 0.0477225 -1.19157
thorax -4.859 0.0334407 -3.53539
lowerneck -7.47063 0.346793 -1.87859
upperneck 7.52169 0.475751 2.23211
head 3.77598 0.28096 1.10169
rclavicle -5.34234e-015 -6.95746e-016
rhumerus -33.5248 -36.7006 -72.7834
rradius 10.4681
rwrist 53.2827
rhand -12.3874 18.5396
rfingers 7.12502
rthumb 13.6836 -10.9905
lclavicle -5.34234e-015 -6.95746e-016
lhumerus -31.9379 33.886 75.4425
lradius 22.2902
lwrist -30.6961
lhand -10.4332 -6.8135
lfingers 7.12502
lthumb 15.5665 22.58
rfemur 30.8795 5.67024 28.5654
rtibia 0
rfoot -24.9994 -9.54479
rtoes -8.21468
lfemur -29.1294 -17.1848 -16.4095
ltibia 29.9425
lfoot -17.9565 5.72646
ltoes -13.375
371
root 0.142076 17.1091 -11.4048 172.889 173.457 -180.27
lowerback 20.2741 -0.481151 3.85676
upperback 5.93047 0.0905764 -1.19808
thorax -4.88843 0.0530553 -3.50614
lowerneck -7.51075 0.301646 -1.77732
upperneck 7.47088 0.393679 2.36171
head 3.76818 0.249441 1.12216
rclavicle 5.2181e-016 -9.0447e-015
rhumerus -32.8971 -35.3873 -73.6786
rradius 10.6598
rwrist 52.1753
rhand -12.155 18.118
rfingers 7.12502
rthumb 13.9076 -11.397
lclavicle 5.2181e-016 -9.0447e-015
lhumerus -32.6011 34.6947 74.4947
lradius 21.9161
lwrist -31.7242
lhand -10.5639 -6.67263
lfingers 7.12502
lthumb 15.4406 22.7307
rfemur 31.2514 5.30119 28.4679
rtibia 9.54166e-015
rfoot -25.0493 -9.14316
rtoes -8.30706
lfemur -29.305 -17.1063 -16.4708
ltibia 30.0035
lfoot -17.8393 5.67843
ltoes -13.7835
372
root 0.151563 17.0853 -11.2846 172.892 173.53 -180.324
lowerback 20.2342 -0.432472 3.79985
upperback 5.94001 0.14037 -1.20688
thorax -4.85349 0.0784496 -3.4944
lowerneck -7.65155 0.257972 -1.73256
upperneck 7.36968 0.31893 2.52507
head 3.7627 0.221815 1.16478
rclavicle -4.80562e-014 1.37161e-014
rhumerus -32.2719 -34.3743 -74.4374
rradius 10.8282
rwrist 51.306
rhand -11.9214 17.693
rfingers 7.12502
rthumb 14.1327 -11.8064
lclavicle -4.80562e-014 1.37161e-014
lhumerus -33.1555 35.5026 73.579
lradius 21.5065
lwrist -32.6671
lhand -10.752 -6.59665
lfingers 7.12502
lthumb 15.2594 22.8205
rfemur 31.626 4.95762 28.3734
rtibia -3.49861e-014
rfoot -25.0797 -8.74134
rtoes -8.40896
lfemur -29.4095 -16.9444 -16.5527
ltibia 30.1523
lfoot -17.6219 5.53218
ltoes -14.0004
373
root 0.161753 17.0601 -11.1616 172.89 173.607 -180.343
lowerback 20.1597 -0.373641 3.72784
upperback 5.98068 0.197941 -1.23314
thorax -4.76637 0.109526 -3.49388
lowerneck -7.82623 0.202244 -1.77297
upperneck 7.29322 0.233472 2.73738
head 3.77362 0.188867 1.23906
rclavicle -3.598e-014 1.19271e-015
rhumerus -31.6104 -33.3244 -75.216
rradius 11.0077
rwrist 50.3035
rhand -11.6636 17.2529
rfingers 7.12502
rthumb 14.3812 -12.229
lclavicle -3.598e-014 1.19271e-015
lhumerus -33.6771 36.3889 72.6418
lradius 21.0711
lwrist -33.6837
lhand -10.9864 -6.56287
lfingers 7.12502
lthumb 15.0336 22.8713
rfemur 32.0391 4.62269 28.2414
rtibia 6.36111e-015
rfoot -25.0602 -8.32988
rtoes -8.43303
lfemur -29.4462 -16.7407 -16.6999
ltibia 30.378
lfoot -17.2176 5.32256
ltoes -13.9095
374
root 0.173536 17.0338 -11.0346 172.907 173.712 -180.32
lowerback 20.1146 -0.31623 3.59273
upperback 5.97835 0.241993 -1.26917
thorax -4.74277 0.131728 -3.46516
lowerneck -7.96364 0.172545 -1.80465
upperneck 7.25622 0.18517 2.90126
head 3.79007 0.172293 1.29783
rclavicle 3.77691e-015 -1.78906e-015
rhumerus -30.9868 -31.8249 -76.1529
rradius 11.3007
rwrist 48.7427
rhand -11.2956 16.7898
rfingers 7.12502
rthumb 14.7357 -12.6664
lclavicle 3.77691e-015 -1.78906e-015
lhumerus -34.2935 37.1694 71.6415
lradius 20.6596
lwrist -34.5045
lhand -11.1131 -6.58033
lfingers 7.12502
lthumb 14.9115 22.863
rfemur 32.4657 4.32701 28.06
rtibia -5.40694e-014
rfoot -25.0193 -7.92066
rtoes -8.425
lfemur -29.4514 -16.4547 -16.9282
ltibia 30.6895
lfoot -16.6344 5.05703
ltoes -13.557
375
root 0.185712 17.0078 -10.9049 172.945 173.806 -180.284
lowerback 20.0769 -0.254607 3.44316
upperback 5.93715 0.289168 -1.30735
thorax -4.76488 0.153771 -3.43162
lowerneck -8.03074 0.143009 -1.87984
upperneck 7.19601 0.141828 3.06578
head 3.78463 0.156473 1.3641
rclavicle 8.54774e-015 3.97569e-016
rhumerus -30.5644 -30.3165 -76.9693
rradius 11.6254
rwrist 47.1944
rhand -10.9622 16.4012
rfingers 7.12502
rthumb 15.0569 -13.0313
lclavicle 8.54774e-015 3.97569e-016
lhumerus -35.0718 38.0887 70.4946
lradius 20.2398
lwrist -35.5137
lhand -11.4057 -6.69029
lfingers 7.12502
lthumb 14.6296 22.7737
rfemur 32.8763 4.02819 27.8586
rtibia -9.22361e-014
rfoot -24.9451 -7.53338
rtoes -8.66292
lfemur -29.4771 -16.1327 -17.1757
ltibia 31.0885
lfoot -15.9561 4.70648
ltoes -13.1571
376
root 0.198435 16.9831 -10.7699 172.975 173.917 -180.228
lowerback 20.0385 -0.18422 3.31476
upperback 5.89236 0.348903 -1.3952
thorax -4.78886 0.182094 -3.46661
lowerneck -8.06085 0.118364 -1.91695
upperneck 7.12311 0.0979504 3.26088
head 3.7676 0.142584 1.43332
rclavicle -1.10822e-014 1.53064e-014
rhumerus -30.2599 -28.8004 -77.8001
rradius 12.0121
rwrist 45.5077
rhand -10.6247 16.0601
rfingers 7.12502
rthumb 15.382 -13.3477
lclavicle -1.10822e-014 1.53064e-014
lhumerus -35.8664 38.9643 69.2236
lradius 19.7897
lwrist -36.5113
lhand -11.6419 -6.92774
lfingers 7.12502
lthumb 14.4021 22.5526
rfemur 33.3302 3.75242 27.6294
rtibia -4.13472e-014
rfoot -24.8283 -7.11466
rtoes -8.78104
lfemur -29.4864 -15.8526 -17.4332
ltibia 31.5849
lfoot -15.2114 4.24584
ltoes -13.2064
377
root 0.212878 16.9604 -10.6318 173.008 174.028 -180.173
lowerback 20.0166 -0.126709 3.19326
upperback 5.82707 0.394314 -1.4735
thorax -4.84466 0.202335 -3.49237
lowerneck -8.0266 0.0963562 -2.03354
upperneck 7.04766 0.0668249 3.45072
head 3.73714 0.131933 1.51526
rclavicle 6.95746e-015 -9.93923e-016
rhumerus -30.0851 -27.5559 -78.4102
rradius 12.3644
rwrist 44.127
rhand -10.2774 15.7777
rfingers 7.12502
rthumb 15.7165 -13.6041
lclavicle 6.95746e-015 -9.93923e-016
lhumerus -36.7603 39.8806 67.8769
lradius 19.3369
lwrist -37.526
lhand -11.9559 -7.11914
lfingers 7.12502
lthumb 14.0995 22.3825
rfemur 33.7843 3.48208 27.391
rtibia -7.31528e-014
rfoot -24.6748 -6.69463
rtoes -9.01989
lfemur -29.5215 -15.5965 -17.6909
ltibia 32.1618
lfoot -14.3215 3.73782
ltoes -13.7052
